<?xml version="1.0" standalone="no"?>
<!DOCTYPE svg PUBLIC "-//W3C//DTD SVG 20010904//EN"
 "http://www.w3.org/TR/2001/REC-SVG-20010904/DTD/svg10.dtd">
<svg version="1.0" xmlns="http://www.w3.org/2000/svg"
 width="100px" height="100px" viewBox="0 0 460.000000 460.000000"
 preserveAspectRatio="xMidYMid meet">

<g transform="translate(0.000000,460.000000) scale(0.100000,-0.100000)"
fill="#000000" stroke="none">
<path d="M2050 4279 c-480 -39 -968 -229 -1327 -516 -389 -311 -624 -692 -708
-1148 -14 -73 -16 -134 -12 -330 4 -236 5 -242 40 -375 105 -397 333 -736 687
-1022 54 -44 166 -122 205 -144 11 -6 54 -31 95 -54 126 -73 357 -172 480
-206 313 -87 496 -114 785 -114 283 0 493 29 755 105 602 174 1104 568 1360
1069 58 114 94 211 84 227 -4 7 -3 10 3 6 6 -4 14 0 17 9 9 24 7 31 -4 14 -15
-23 -13 6 4 66 58 195 73 519 36 740 -76 447 -351 877 -748 1172 -268 198
-554 331 -922 426 -62 16 -84 25 -65 26 42 2 -72 26 -188 40 -134 15 -444 20
-577 9z m590 -82 l75 -12 3 -447 c1 -301 -1 -448 -8 -448 -6 0 -34 13 -63 29
-109 62 -259 101 -384 101 l-72 0 -7 48 c-9 59 9 170 37 224 11 22 41 60 66
84 39 38 50 44 77 39 46 -8 61 7 57 57 -2 33 -81 35 -81 2 0 -9 -21 -37 -47
-64 -68 -68 -90 -98 -118 -156 -30 -64 -44 -124 -45 -191 l0 -52 -37 -6 c-45
-8 -152 -42 -173 -55 -11 -7 -18 -3 -27 13 -11 20 -12 18 -13 -22 0 -50 -6
-50 107 -3 39 17 105 36 147 43 l75 13 62 -32 c36 -19 77 -32 99 -32 50 0 190
-36 269 -70 l66 -28 8 -124 c9 -138 4 -804 -6 -814 -9 -9 -219 -8 -298 1 l-64
8 45 13 45 12 -37 1 c-21 1 -102 11 -180 22 -79 12 -156 22 -173 22 -27 1 -30
5 -32 37 -3 34 -6 53 -23 155 -4 28 -7 122 -6 210 2 143 5 167 27 226 l25 66
-70 0 c-43 1 -74 -4 -78 -11 -4 -6 -8 -441 -8 -966 l0 -956 68 -17 c183 -46
215 -50 407 -51 196 0 225 4 348 58 16 8 17 -10 15 -320 l-3 -329 -65 -13
c-95 -20 -589 -22 -693 -3 -43 8 -80 18 -83 23 -3 5 -7 839 -8 1853 -3 1679
-1 1845 13 1849 25 8 170 26 236 30 103 6 447 -5 525 -17z m-897 -951 c-105
-85 -181 -183 -242 -311 -21 -44 -49 -84 -78 -108 -44 -40 -77 -89 -66 -101 3
-3 -1 -14 -9 -23 -31 -37 -43 -88 -42 -178 1 -115 5 -155 15 -150 4 3 5 -3 3
-13 -3 -9 9 -44 25 -77 30 -60 30 -60 20 -155 -5 -52 -14 -108 -19 -124 -16
-46 -12 -79 15 -131 l24 -49 -29 -124 c-17 -68 -30 -137 -30 -153 0 -64 81
-172 180 -239 57 -39 190 -110 243 -129 l27 -11 0 -338 0 -339 -37 -6 c-20 -4
-39 -4 -42 -2 -2 3 4 5 15 6 18 0 18 1 -1 9 -11 5 -27 9 -35 9 -13 1 -13 0 0
-9 12 -8 11 -10 -6 -10 -23 0 -208 52 -264 75 -19 7 -66 26 -105 41 -142 54
-328 156 -466 255 -434 310 -703 720 -785 1199 -24 133 -23 384 0 520 17 100
71 290 82 290 3 0 2 -10 -2 -22 -13 -45 4 -12 31 57 66 171 178 362 285 489
29 34 137 153 160 176 67 66 209 180 224 180 3 0 6 -643 6 -1429 l0 -1429 42
-21 c23 -11 42 -19 43 -18 0 1 -2 666 -5 1477 -3 811 -2 1480 3 1486 9 14 193
121 269 157 175 83 424 166 563 189 20 3 20 -3 23 -441 l2 -445 -37 -30z
m1212 888 c221 -55 480 -164 660 -279 l50 -32 -3 -1496 -2 -1496 -73 -45
c-105 -65 -283 -149 -427 -199 -145 -51 -338 -102 -348 -92 -4 4 -8 775 -10
1713 -1 939 -3 1764 -5 1835 l-2 128 30 -6 c17 -4 75 -17 130 -31z m895 -446
c19 -17 62 -54 94 -82 77 -66 234 -249 301 -351 188 -283 285 -600 285 -926 0
-331 -91 -627 -285 -924 -87 -135 -241 -307 -366 -410 -74 -61 -111 -87 -116
-81 -8 7 -12 464 -16 1833 l-3 1012 35 -20 c20 -11 52 -34 71 -51z m-2071
-515 c-1 -16 -4 -39 -8 -53 l-7 -25 -13 23 c-10 19 -10 30 -1 53 16 37 30 37
29 2z m-221 -405 c17 -15 104 -24 123 -13 7 5 6 12 -2 23 -6 10 5 -1 25 -22
57 -62 88 -165 70 -234 -5 -17 -10 -20 -19 -12 -9 8 -22 -2 -51 -40 -21 -27
-41 -50 -44 -50 -3 0 -31 -24 -61 -54 -40 -38 -64 -53 -83 -53 l-27 0 28 17
c61 38 103 109 103 172 0 29 -6 35 -43 52 -50 23 -87 60 -87 86 0 10 -4 21 -9
24 -4 3 -14 26 -21 51 -14 49 -30 56 -68 29 -13 -9 -26 -14 -28 -11 -3 3 14
17 38 32 35 21 52 25 91 22 26 -2 55 -11 65 -19z m1147 -617 c-10 -9 -162 -7
-172 2 -10 11 16 26 102 58 l70 27 3 -40 c2 -22 0 -43 -3 -47z m5 -300 l0
-239 -62 -10 c-35 -6 -80 -14 -100 -17 -94 -15 -435 -2 -407 15 9 6 10 33 5
106 -7 89 -28 221 -37 228 -2 1 -25 10 -51 20 -43 16 -46 19 -33 33 13 12 21
13 48 4 50 -18 204 -24 287 -13 83 12 208 51 279 88 25 13 52 24 59 24 9 0 12
-54 12 -239z m0 -386 l0 -84 -52 -17 c-72 -22 -285 -30 -401 -15 -80 11 -220
40 -281 58 -13 4 22 21 108 52 70 26 124 49 121 52 -3 3 75 7 172 7 108 1 204
7 243 16 36 7 71 14 78 15 9 1 12 -22 12 -84z"/>
<path d="M2030 3887 c-11 -19 -34 -45 -52 -58 -17 -13 -46 -44 -64 -68 -28
-36 -34 -53 -34 -90 l1 -46 24 47 c14 26 49 72 79 102 47 49 58 55 83 50 40
-8 71 25 57 64 -7 21 -17 28 -42 30 -27 3 -35 -2 -52 -31z"/>
<path d="M2820 3180 c0 -5 10 -15 23 -21 22 -12 22 -12 3 10 -21 23 -26 26
-26 11z"/>
<path d="M2970 2350 c-19 -10 -63 -26 -97 -36 -34 -9 -60 -20 -58 -24 7 -11
101 12 153 38 35 17 43 18 38 6 -3 -9 -6 -28 -6 -43 0 -25 -8 -31 -92 -68
l-93 -40 -3 -45 c-3 -41 -1 -46 25 -56 46 -18 86 -23 118 -14 33 9 30 1 54
172 6 47 14 95 16 108 7 27 -8 28 -55 2z"/>
<path d="M2980 1773 c0 -19 -70 -80 -120 -103 -43 -20 -50 -28 -50 -52 0 -15
2 -28 5 -28 21 0 107 55 132 84 30 33 51 91 39 103 -3 4 -6 2 -6 -4z"/>
<path d="M2837 1544 c3 -26 0 -52 -10 -71 -10 -18 -16 -55 -16 -99 l1 -69 23
80 c28 91 30 127 11 170 l-14 30 5 -41z"/>
<path d="M2868 4223 c7 -3 16 -2 19 1 4 3 -2 6 -13 5 -11 0 -14 -3 -6 -6z"/>
</g>
</svg>
